<svg width="24" height="24" viewBox="0 0 24 24" fill="none" xmlns="http://www.w3.org/2000/svg">
<path d="M14.69 17.29C14.7827 17.1975 14.8562 17.0876 14.9064 16.9666C14.9566 16.8456 14.9824 16.7159 14.9824 16.585C14.9824 16.454 14.9566 16.3243 14.9064 16.2034C14.8562 16.0824 14.7827 15.9725 14.69 15.88L10.81 12L14.69 8.11998C14.877 7.933 14.982 7.67941 14.982 7.41498C14.982 7.15055 14.877 6.89695 14.69 6.70998C14.503 6.523 14.2494 6.41796 13.985 6.41796C13.7206 6.41796 13.467 6.523 13.28 6.70998L8.68998 11.3C8.59727 11.3925 8.52373 11.5024 8.47355 11.6234C8.42336 11.7443 8.39753 11.874 8.39753 12.005C8.39753 12.1359 8.42336 12.2656 8.47355 12.3866C8.52373 12.5076 8.59727 12.6175 8.68998 12.71L13.28 17.3C13.66 17.68 14.3 17.68 14.69 17.29Z" fill="#9C9C9C"/>
</svg>
