<svg width="36" height="36" viewBox="0 0 36 36" fill="none" xmlns="http://www.w3.org/2000/svg">
<circle r="17" transform="matrix(-1 0 0 1 18 18)" fill="#7F67BE" stroke="white" stroke-width="2"/>
<path d="M19.3915 10H16.6085C15.9189 10 15.278 10.3552 14.9125 10.94L14.0875 12.26C13.722 12.8448 13.0811 13.2 12.3915 13.2H11C9.89543 13.2 9 14.0954 9 15.2V24C9 25.1046 9.89543 26 11 26H25C26.1046 26 27 25.1046 27 24V15.2C27 14.0954 26.1046 13.2 25 13.2H23.6085C22.9189 13.2 22.278 12.8448 21.9125 12.26L21.0875 10.94C20.722 10.3552 20.0811 10 19.3915 10Z" stroke="white" stroke-width="2"/>
<ellipse rx="3.375" ry="3.42857" transform="matrix(-1 0 0 1 18 19.1428)" stroke="white" stroke-width="2"/>
</svg>
