<svg width="24" height="24" viewBox="0 0 24 24" fill="none" xmlns="http://www.w3.org/2000/svg">
<path d="M10.6085 4H13.3915C14.0811 4 14.722 4.35524 15.0875 4.94L15.9125 6.26C16.278 6.84476 16.9189 7.2 17.6085 7.2H19C20.1046 7.2 21 8.09543 21 9.2V18C21 19.1046 20.1046 20 19 20H5C3.89543 20 3 19.1046 3 18V9.2C3 8.09543 3.89543 7.2 5 7.2H6.3915C7.08108 7.2 7.72202 6.84476 8.0875 6.26L8.9125 4.94C9.27798 4.35524 9.91892 4 10.6085 4Z" stroke="#9C9C9C" stroke-width="2"/>
<ellipse cx="12" cy="13.1429" rx="3.375" ry="3.42857" stroke="#9C9C9C" stroke-width="2"/>
</svg>
