<svg width="88" height="88" viewBox="0 0 88 88" fill="none" xmlns="http://www.w3.org/2000/svg">
<path d="M65.66 9.16003H22.33C20.1208 9.16003 18.33 10.9509 18.33 13.16V38.18C18.33 40.3892 20.1208 42.18 22.33 42.18H65.66C67.8691 42.18 69.66 40.3892 69.66 38.18V13.16C69.66 10.9509 67.8691 9.16003 65.66 9.16003Z" stroke="current" stroke-width="2" stroke-linecap="round" stroke-linejoin="round"/>
<path d="M15.59 55.03C17.1143 55.03 18.35 53.7943 18.35 52.27C18.35 50.7457 17.1143 49.51 15.59 49.51C14.0657 49.51 12.83 50.7457 12.83 52.27C12.83 53.7943 14.0657 55.03 15.59 55.03Z" stroke="current" stroke-width="2" stroke-linecap="round" stroke-linejoin="round"/>
<path d="M60.5 20.19C62.0243 20.19 63.26 18.9543 63.26 17.43C63.26 15.9057 62.0243 14.67 60.5 14.67C58.9757 14.67 57.74 15.9057 57.74 17.43C57.74 18.9543 58.9757 20.19 60.5 20.19Z" stroke="current" stroke-width="2" stroke-linecap="round" stroke-linejoin="round"/>
<path d="M23.83 31.1701L31.17 18.3301L45.83 33.0001L51.33 25.6701L64.17 36.6701" stroke="current" stroke-width="2" stroke-linecap="round" stroke-linejoin="round"/>
<path d="M15.59 57.74C17.11 57.74 18.34 58.97 18.34 60.49V78.83H12.84V60.49C12.84 58.97 14.07 57.74 15.59 57.74Z" stroke="current" stroke-width="2" stroke-linecap="round" stroke-linejoin="round"/>
<path d="M44 55.03C45.5243 55.03 46.76 53.7943 46.76 52.27C46.76 50.7457 45.5243 49.51 44 49.51C42.4757 49.51 41.24 50.7457 41.24 52.27C41.24 53.7943 42.4757 55.03 44 55.03Z" stroke="current" stroke-width="2" stroke-linecap="round" stroke-linejoin="round"/>
<path d="M44 57.74C45.52 57.74 46.75 58.97 46.75 60.49V78.83H41.25V60.49C41.25 58.97 42.48 57.74 44 57.74Z" stroke="current" stroke-width="2" stroke-linecap="round" stroke-linejoin="round"/>
<path d="M72.43 55.03C73.9543 55.03 75.19 53.7943 75.19 52.27C75.19 50.7457 73.9543 49.51 72.43 49.51C70.9056 49.51 69.67 50.7457 69.67 52.27C69.67 53.7943 70.9056 55.03 72.43 55.03Z" stroke="current" stroke-width="2" stroke-linecap="round" stroke-linejoin="round"/>
<path d="M72.43 57.74C73.95 57.74 75.18 58.97 75.18 60.49V78.83H69.68V60.49C69.68 58.97 70.91 57.74 72.43 57.74Z" stroke="current" stroke-width="2" stroke-linecap="round" stroke-linejoin="round"/>
<path d="M18.3499 60.5C25.9799 65.76 33.6099 65.76 41.2399 60.5" stroke="current" stroke-width="2" stroke-linecap="round" stroke-linejoin="round"/>
<path d="M46.7499 60.5C54.3799 65.76 62.0099 65.76 69.6399 60.5" stroke="current" stroke-width="2" stroke-linecap="round" stroke-linejoin="round"/>
</svg>
