<svg width="24" height="24" viewBox="0 0 24 24" fill="none" xmlns="http://www.w3.org/2000/svg">
<path d="M9.5 10.3411C9.18408 10.8163 9 11.3867 9 12C9 13.6569 10.3431 15 12 15C13.0015 15 13.8884 14.5093 14.4333 13.7552M12.594 9.05884C13.3872 9.21816 14.0673 9.69033 14.5 10.3411" stroke="#9C9C9C" stroke-width="2" stroke-linecap="round" stroke-linejoin="round"/>
<path d="M6 7.80245C4.8335 8.55932 3.79192 9.55472 2.95402 10.789L2 12.1942L2.28897 12.6807C5.6219 18.2914 12.9828 19.4408 18 16.2368M9 6.44352C13.4719 5.16815 18.6587 6.64425 21.4704 10.86L22 11.6539L21.6186 12.3529C21.2186 13.0858 20.7498 13.7478 20.2256 14.3386" stroke="#9C9C9C" stroke-width="2" stroke-linecap="round" stroke-linejoin="round"/>
<path d="M2 5L22 19" stroke="#9C9C9C" stroke-width="2" stroke-linecap="round"/>
</svg>
