<svg width="40" height="40" viewBox="0 0 40 40" fill="none" xmlns="http://www.w3.org/2000/svg">
<path fill-rule="evenodd" clip-rule="evenodd" d="M5 20.0002C5 19.0797 5.74619 18.3335 6.66667 18.3335H33.3333C34.2538 18.3335 35 19.0797 35 20.0002C35 20.9206 34.2538 21.6668 33.3333 21.6668H6.66667C5.74619 21.6668 5 20.9206 5 20.0002Z" fill="#6750A4"/>
<path fill-rule="evenodd" clip-rule="evenodd" d="M5 10.0002C5 9.07969 5.74619 8.3335 6.66667 8.3335H33.3333C34.2538 8.3335 35 9.07969 35 10.0002C35 10.9206 34.2538 11.6668 33.3333 11.6668H6.66667C5.74619 11.6668 5 10.9206 5 10.0002Z" fill="#6750A4"/>
<path fill-rule="evenodd" clip-rule="evenodd" d="M5 30.0002C5 29.0797 5.74619 28.3335 6.66667 28.3335H33.3333C34.2538 28.3335 35 29.0797 35 30.0002C35 30.9206 34.2538 31.6668 33.3333 31.6668H6.66667C5.74619 31.6668 5 30.9206 5 30.0002Z" fill="#6750A4"/>
</svg>
