<svg width="24" height="24" viewBox="0 0 24 24" fill="none" xmlns="http://www.w3.org/2000/svg">
<path d="M11.9999 20.8313C12.1971 20.8331 12.3926 20.795 12.5746 20.7192C12.7567 20.6435 12.9215 20.5318 13.0593 20.3907L20.8499 12.6001C21.3907 12.0608 21.8157 11.4169 22.0991 10.7077C22.3825 9.9985 22.5182 9.23897 22.498 8.47553C22.4779 7.7121 22.3022 6.9608 21.9817 6.26759C21.6613 5.57437 21.2028 4.9538 20.6343 4.44383C20.0888 3.95369 19.4492 3.5796 18.7546 3.3443C18.06 3.109 17.3248 3.0174 16.5937 3.07508C15.1239 3.17056 13.7399 3.80085 12.703 4.84695L11.9999 5.5407L11.0999 4.65008C10.5606 4.10934 9.9167 3.68429 9.20752 3.40091C8.49834 3.11753 7.73881 2.98178 6.97538 3.00196C6.21194 3.02214 5.46065 3.19783 4.76743 3.51829C4.07421 3.83874 3.45364 4.29723 2.94367 4.8657C2.45353 5.41125 2.07944 6.05077 1.84414 6.74538C1.60884 7.44 1.51725 8.17521 1.57492 8.90633C1.6704 10.3761 2.3007 11.7601 3.3468 12.797L10.9405 20.3907C11.0783 20.5318 11.2432 20.6435 11.4252 20.7192C11.6073 20.795 11.8028 20.8331 11.9999 20.8313ZM16.9687 4.5657C17.9469 4.55583 18.8946 4.90621 19.6312 5.55008C20.0487 5.92461 20.3855 6.38036 20.6209 6.88948C20.8563 7.39859 20.9855 7.95037 21.0004 8.51109C21.0153 9.0718 20.9157 9.62966 20.7077 10.1506C20.4997 10.6715 20.1876 11.1445 19.7905 11.5407L11.4655 19.8657L11.9999 19.3313L4.40617 11.7376C2.76555 10.1063 2.61555 7.47195 4.04992 5.86883C4.42445 5.45128 4.88021 5.1145 5.38932 4.87908C5.89844 4.64366 6.45021 4.51454 7.01093 4.49962C7.57164 4.48471 8.12951 4.5843 8.65042 4.79232C9.17133 5.00034 9.64435 5.31241 10.0405 5.70945L11.4655 7.13445C11.6077 7.27529 11.7998 7.3543 11.9999 7.3543C12.2001 7.3543 12.3921 7.27529 12.5343 7.13445L13.7624 5.90633C14.1825 5.48315 14.682 5.14693 15.2321 4.9169C15.7823 4.68686 16.3724 4.56752 16.9687 4.5657Z" fill="#9C9C9C"/>
</svg>
