<svg width="120" height="30" viewBox="0 0 120 30" fill="none" xmlns="http://www.w3.org/2000/svg">
<path d="M19.0466 0.118556C18.8014 -0.0572697 18.4944 -0.0298682 18.3455 0.19391L9.63673 12.383L0.909669 0.301232C0.827187 0.152808 0.687426 0.0751706 0.508715 0.0751706C0.366662 0.0751706 0.249813 0.125407 0.16733 0.223595C0.0871395 0.317217 0.0458984 0.426822 0.0458984 0.550129C0.0458984 0.673435 0.0779748 0.773907 0.139836 0.856111L13.3645 19.2128C13.4492 19.3407 13.5821 19.4069 13.7494 19.4069C13.8731 19.4069 13.99 19.3612 14.0908 19.2699C14.1962 19.1763 14.2489 19.0552 14.2489 18.9091C14.2489 18.8452 14.2259 18.7447 13.9533 18.3428C13.7677 18.0711 13.5409 17.74 13.2659 17.3472C12.991 16.9522 12.6817 16.532 12.3495 16.0959C12.0127 15.6575 11.6942 15.2304 11.4009 14.8286C11.1031 14.4221 10.8442 14.0659 10.6196 13.7622C10.4364 13.5133 10.3058 13.3306 10.2324 13.2119L18.2744 1.98185V18.9296C18.2744 19.0529 18.3157 19.1648 18.4005 19.2562C18.4852 19.3521 18.5975 19.4023 18.7258 19.4023C18.8541 19.4023 18.9664 19.3544 19.0603 19.2607C19.1542 19.1671 19.2024 19.0552 19.2024 18.9274V0.625483C19.2184 0.586664 19.2253 0.531861 19.2253 0.45194C19.2253 0.3195 19.1634 0.205327 19.0466 0.118556Z" fill="#6750A4"/>
<path d="M9.79017 16.5756C9.33422 15.9293 8.81184 15.1941 8.22759 14.3697C7.64105 13.5477 7.03618 12.7005 6.41069 11.8283C5.7852 10.9583 5.1643 10.0974 4.54568 9.25025C3.92936 8.40309 3.36802 7.629 2.86167 6.92569C2.36449 6.23381 1.92687 5.63326 1.56258 5.13775C1.1937 4.63996 0.962291 4.32256 0.86148 4.1787C0.778998 4.03027 0.648401 3.95264 0.483437 3.95264C0.318473 3.95264 0.192458 4.02114 0.109976 4.14901C0.0366587 4.26319 0 4.38878 0 4.5235V18.8088C0 18.9367 0.0504057 19.0508 0.153508 19.1444C0.348258 19.3271 0.618616 19.3248 0.817947 19.1604C0.92105 19.0759 0.976038 18.9549 0.976038 18.8088V5.98491L10.434 19.2084C10.5188 19.3363 10.6516 19.4025 10.8189 19.4025C10.9426 19.4025 11.0595 19.3568 11.1603 19.2655C11.2657 19.1719 11.3184 19.0577 11.3184 18.9298C11.3184 18.8796 11.3184 18.8248 10.8899 18.1717C10.6127 17.7493 10.2438 17.2126 9.79246 16.5756H9.79017Z" fill="#6750A4"/>
<path d="M23.5759 0.187079C23.388 -0.036699 23.0947 -0.0549666 22.8564 0.120859C22.7396 0.205347 22.6777 0.321803 22.6777 0.45196C22.6777 0.506763 22.6777 0.5844 23.2872 1.46353C23.679 2.02983 24.1853 2.73998 24.7925 3.57572L26.7766 6.30902C27.4892 7.2909 28.172 8.22255 28.8204 9.10168C29.4688 9.98081 30.0347 10.7435 30.5158 11.392C30.9718 12.0039 31.2673 12.4058 31.4071 12.5954V18.9342C31.4071 19.0621 31.4575 19.174 31.5537 19.2676C31.65 19.3612 31.7645 19.4069 31.8951 19.4069C32.0257 19.4069 32.1403 19.359 32.2365 19.2676C32.335 19.174 32.3831 19.0621 32.3831 18.9342V12.4378C32.3831 12.351 32.3533 12.262 32.2869 12.1547L23.5759 0.187079Z" fill="#6750A4"/>
<path d="M37.4999 0.00244141C37.3143 0.00244141 37.1722 0.0800788 37.092 0.219369L31.9644 7.72965L26.5481 0.235354C26.3487 -0.0021255 26.0692 0.00244141 25.847 0.185118C25.7324 0.278739 25.6729 0.404329 25.6729 0.548187C25.6729 0.657793 25.7072 0.751414 25.7668 0.806217L31.5405 8.81429C31.6597 8.97185 31.8109 9.05177 31.9919 9.05177C32.1729 9.05177 32.3195 8.97413 32.3951 8.83941C32.4914 8.71153 32.6976 8.4261 33.0092 7.98539C33.3231 7.54697 33.6874 7.02634 34.1044 6.4258C34.5213 5.82753 34.9544 5.19501 35.4034 4.53053C35.8525 3.86833 36.2695 3.24723 36.6544 2.6718C37.0348 2.10322 37.3555 1.61456 37.6053 1.21952C37.9948 0.605273 37.9948 0.523069 37.9948 0.475116C37.9948 0.347243 37.9421 0.23307 37.8367 0.139449C37.7359 0.0481105 37.6213 0.00244141 37.4953 0.00244141L37.4999 0.00244141Z" fill="#6750A4"/>
<path d="M54.9535 16.0983C54.6327 15.2786 54.257 14.331 53.8354 13.2806C53.4115 12.2256 52.9785 11.1432 52.5363 10.0335C52.0941 8.92373 51.6542 7.82311 51.2143 6.73619C50.7767 5.65611 50.3757 4.65368 50.0252 3.754C49.6723 2.84975 49.3722 2.09164 49.1225 1.47511C48.875 0.865429 48.7192 0.465824 48.6551 0.294565C48.6092 0.159842 48.497 0 48.2106 0C47.9242 0 47.8027 0.152991 47.7432 0.289999C47.679 0.465824 47.5278 0.860862 47.2872 1.47283C47.0467 2.08936 46.7534 2.84747 46.4097 3.75171C46.066 4.65368 45.6811 5.64926 45.255 6.7339C44.8288 7.82083 44.4049 8.91917 43.9811 10.0312C43.5572 11.1432 43.1402 12.2233 42.7301 13.2783C42.3223 14.3332 41.9603 15.2672 41.6487 16.0824C41.3348 16.8976 41.0827 17.562 40.8903 18.0735C40.5947 18.8613 40.5947 18.875 40.5947 18.9047C40.5947 19.213 40.7711 19.3294 40.9178 19.3728C40.9269 19.3751 40.9453 19.3774 40.959 19.3774C40.9957 19.3979 41.0369 19.4002 41.0713 19.4002C41.2958 19.4002 41.4562 19.2929 41.5387 19.0874L47.0375 4.83635L52.7013 19.0897C52.7837 19.2929 52.935 19.4025 53.1435 19.4025C53.1962 19.4025 53.2351 19.3956 53.2626 19.3797C53.2626 19.3797 53.2924 19.3797 53.3222 19.3728C53.5307 19.3112 53.6452 19.1536 53.6452 18.9275C53.6452 18.8979 53.6452 18.8842 53.3978 18.2288C53.2374 17.8064 53.0243 17.2492 52.7608 16.5619C52.4951 15.8746 52.1903 15.0913 51.8467 14.2122C51.5007 13.3331 51.1456 12.4311 50.7767 11.504C50.4078 10.577 50.0481 9.66357 49.6953 8.76161C49.3447 7.8665 49.0125 7.03304 48.7078 6.29091C48.403 5.54879 48.1464 4.92084 47.9379 4.40935C47.75 3.95037 47.6194 3.64211 47.5484 3.48912L48.2174 1.76968L55.1047 19.0828C55.1482 19.229 55.2674 19.4048 55.5744 19.4048C55.7027 19.4048 55.815 19.3568 55.9089 19.2632C56.0028 19.1696 56.051 19.0577 56.051 18.9298C56.051 18.8979 56.051 18.8842 55.7416 18.0964C55.54 17.5849 55.2811 16.9181 54.9604 16.0961L54.9535 16.0983Z" fill="#6750A4"/>
<path d="M71.7775 18.4345H63.2108V0.500234C63.2108 0.185118 63.0321 0.00244141 62.7228 0.00244141C62.5968 0.00244141 62.4845 0.0549608 62.3837 0.157716C62.2852 0.258188 62.2348 0.374644 62.2348 0.500234V18.4345H60.8761V0.596139C60.8761 0.468266 60.8257 0.356377 60.7295 0.262755C60.537 0.0777953 60.2414 0.0777953 60.049 0.262755C59.9528 0.356377 59.9023 0.468266 59.9023 0.596139V18.9323C59.9023 19.2337 60.0742 19.4049 60.3743 19.4049H71.7752C72.0982 19.4049 72.2747 19.2337 72.2747 18.9186C72.2747 18.6034 72.0937 18.4322 71.7752 18.4322L71.7775 18.4345Z" fill="#6750A4"/>
<path d="M87.1222 18.4345H78.5555V0.500234C78.5555 0.185118 78.3768 0.00244141 78.0675 0.00244141C77.9415 0.00244141 77.8292 0.0549608 77.7284 0.157716C77.6299 0.258188 77.5795 0.374644 77.5795 0.500234V18.4345H76.2208V0.596139C76.2208 0.468266 76.1704 0.356377 76.0742 0.262755C75.8817 0.0777953 75.5862 0.0777953 75.3937 0.262755C75.2975 0.356377 75.2471 0.468266 75.2471 0.596139V18.9323C75.2471 19.2337 75.4189 19.4049 75.7191 19.4049H87.1199C87.443 19.4049 87.6194 19.2337 87.6194 18.9186C87.6194 18.6034 87.4384 18.4322 87.1199 18.4322L87.1222 18.4345Z" fill="#6750A4"/>
<path d="M103.041 0.972751C103.17 0.972751 103.282 0.924798 103.376 0.82661C103.47 0.730705 103.515 0.616532 103.515 0.486375C103.515 0.356219 103.467 0.242046 103.376 0.146141C103.282 0.0479525 103.17 0 103.041 0H91.2463C91.1226 0 91.0057 0.0411021 90.9026 0.121023C90.7926 0.205511 90.7354 0.328817 90.7354 0.474958V18.8819C90.7354 19.0234 90.7835 19.1468 90.8774 19.2472C90.9736 19.3523 91.0974 19.4048 91.2486 19.4048H103.044C103.192 19.4048 103.316 19.3431 103.401 19.2267C103.479 19.1194 103.52 19.0029 103.52 18.8842C103.52 18.7654 103.474 18.6444 103.385 18.5348C103.291 18.4206 103.174 18.3612 103.044 18.3612H91.7114V11.52H100.615C100.741 11.52 100.858 11.4698 100.959 11.3716C101.062 11.2734 101.114 11.1592 101.114 11.0336C101.114 10.7254 100.933 10.5473 100.615 10.5473H91.7366L91.7572 9.12239H100.519C100.647 9.12239 100.759 9.07216 100.853 8.97625C100.947 8.88035 100.993 8.76618 100.993 8.63602C100.993 8.50586 100.945 8.39169 100.853 8.29578C100.759 8.19988 100.647 8.14964 100.519 8.14964H91.7114V0.972751H103.044H103.041Z" fill="#6750A4"/>
<path d="M119.846 0.139449C119.745 0.0481105 119.631 0.00244141 119.505 0.00244141C119.319 0.00244141 119.177 0.0800788 119.097 0.219369L113.969 7.72965L108.553 0.235354C108.354 -0.0021255 108.074 0.00244141 107.852 0.185118C107.737 0.278739 107.678 0.404329 107.678 0.548187C107.678 0.657793 107.712 0.751414 107.772 0.806217L113.545 8.81429C113.665 8.97185 113.816 9.05177 113.997 9.05177C114.178 9.05177 114.324 8.97413 114.4 8.83941C114.496 8.71153 114.702 8.4261 115.014 7.98539C115.328 7.54697 115.692 7.02634 116.109 6.4258C116.526 5.82753 116.959 5.19501 117.408 4.53053C117.857 3.86833 118.274 3.24723 118.659 2.6718C119.04 2.10322 119.36 1.61456 119.61 1.21952C120 0.605273 120 0.523069 120 0.475116C120 0.347243 119.947 0.23307 119.842 0.139449H119.846Z" fill="#6750A4"/>
<path d="M105.582 0.187079C105.394 -0.036699 105.101 -0.0549666 104.862 0.120859C104.745 0.205347 104.684 0.321803 104.684 0.45196C104.684 0.506763 104.684 0.5844 105.293 1.46353C105.685 2.02983 106.191 2.73998 106.798 3.57572L108.782 6.30902C109.495 7.2909 110.178 8.22255 110.826 9.10168C111.475 9.98081 112.041 10.7435 112.522 11.392C112.978 12.0039 113.273 12.4058 113.413 12.5954V18.9342C113.413 19.0621 113.463 19.174 113.56 19.2676C113.656 19.3612 113.77 19.4069 113.901 19.4069C114.032 19.4069 114.146 19.359 114.242 19.2676C114.341 19.174 114.389 19.0621 114.389 18.9342V12.4378C114.389 12.351 114.359 12.262 114.293 12.1547L105.582 0.187079Z" fill="#6750A4"/>
<path d="M14.1693 26.2163H16.2268V26.5246H14.545V27.8672H16.1282V28.1755H14.545V29.6209H16.2749V29.9292H14.167V26.2163H14.1693Z" fill="#6750A4"/>
<path d="M19.3981 28.0043L18.2067 26.2163H18.6329L19.6089 27.7211L20.5849 26.2163H21.0111L19.8197 28.0043L21.1279 29.9292H20.7018L19.6089 28.292L18.516 29.9292H18.0898L19.3981 28.0043Z" fill="#6750A4"/>
<path d="M23.0869 26.2163H23.465V27.8672H25.3575V26.2163H25.7355V29.9292H25.3575V28.1755H23.465V29.9292H23.0869V26.2163Z" fill="#6750A4"/>
<path d="M27.9961 26.2163H28.3741V29.9292H27.9961V26.2163Z" fill="#6750A4"/>
<path d="M30.6338 26.2163H31.8596C32.4919 26.2163 33.0166 26.4743 33.0166 27.1502C33.0166 27.5613 32.815 27.849 32.4392 27.9814C32.8562 28.123 33.1357 28.4153 33.1357 28.8902C33.1357 29.6232 32.563 29.9315 31.9191 29.9315H30.6361V26.2186L30.6338 26.2163ZM31.761 27.8421C32.2262 27.8421 32.6386 27.696 32.6386 27.1639C32.6386 26.6319 32.2307 26.5246 31.7954 26.5246H31.0118V27.8444H31.761V27.8421ZM31.8596 29.6209C32.359 29.6209 32.7577 29.4405 32.7577 28.8879C32.7577 28.3057 32.2468 28.155 31.7725 28.155H31.0118V29.6209H31.8596Z" fill="#6750A4"/>
<path d="M35.25 26.2163H35.628V29.9292H35.25V26.2163Z" fill="#6750A4"/>
<path d="M38.8013 26.5226H37.6396V26.2144H40.3364V26.5226H39.1793V29.9273H38.8013V26.5226Z" fill="#6750A4"/>
<path d="M42.3555 26.2163H42.7335V29.9292H42.3555V26.2163Z" fill="#6750A4"/>
<path d="M44.8438 28.0706C44.8438 26.9769 45.4899 26.1411 46.5346 26.1411C47.5794 26.1411 48.2255 26.9769 48.2255 28.0706C48.2255 29.1644 47.5794 30.0001 46.5346 30.0001C45.4899 30.0001 44.8438 29.1644 44.8438 28.0706ZM47.8475 28.0706C47.8475 27.1527 47.3434 26.4494 46.5346 26.4494C45.7258 26.4494 45.2218 27.1527 45.2218 28.0706C45.2218 28.9886 45.7258 29.6919 46.5346 29.6919C47.3434 29.6919 47.8475 28.9886 47.8475 28.0706Z" fill="#6750A4"/>
<path d="M50.333 26.2163H50.8325L52.6517 29.4588V26.2163H53.0297V29.9292H52.5302L50.7111 26.6844V29.9292H50.333V26.2163Z" fill="#6750A4"/>
<path d="M58.0361 26.2163H58.4142V29.9292H58.0361V26.2163Z" fill="#6750A4"/>
<path d="M60.6729 26.2163H61.1723L62.9915 29.4588V26.2163H63.3696V29.9292H62.8701L61.0509 26.6844V29.9292H60.6729V26.2163Z" fill="#6750A4"/>
<path d="M65.6221 26.2163H67.6314V26.5246H66.0001V27.8672H67.5352V28.1755H66.0001V29.9292H65.6221V26.2163Z" fill="#6750A4"/>
<path d="M69.4785 28.0706C69.4785 26.9769 70.1246 26.1411 71.1694 26.1411C72.2142 26.1411 72.8603 26.9769 72.8603 28.0706C72.8603 29.1644 72.2142 30.0001 71.1694 30.0001C70.1246 30.0001 69.4785 29.1644 69.4785 28.0706ZM72.4822 28.0706C72.4822 27.1527 71.9782 26.4494 71.1694 26.4494C70.3606 26.4494 69.8566 27.1527 69.8566 28.0706C69.8566 28.9886 70.3606 29.6919 71.1694 29.6919C71.9782 29.6919 72.4822 28.9886 72.4822 28.0706Z" fill="#6750A4"/>
<path d="M74.9678 26.2163H76.2188C76.9451 26.2163 77.3941 26.5246 77.3941 27.2233C77.3941 27.6777 77.1398 27.9654 76.7365 28.1161C76.9611 28.2143 77.0894 28.381 77.2131 28.7418L77.6141 29.9292H77.2223L76.8557 28.7966C76.7228 28.3856 76.5555 28.2554 76.0721 28.2554H75.3458V29.9315H74.9678V26.2186V26.2163ZM76.1386 27.9449C76.6816 27.9449 77.0161 27.7143 77.0161 27.221C77.0161 26.6547 76.6289 26.5223 76.1683 26.5223H75.3458V27.9449H76.1409H76.1386Z" fill="#6750A4"/>
<path d="M79.5732 26.2163H80.1117L81.3122 29.4542L82.5128 26.2163H83.0512V29.9292H82.6847V26.7347L81.5139 29.9041H81.1129L79.9421 26.7347V29.9292H79.5755V26.2163H79.5732Z" fill="#6750A4"/>
<path d="M86.4489 26.2163H86.8613L88.2979 29.9292H87.9107L87.4845 28.8057H85.828L85.4019 29.9292H85.0146L86.4512 26.2163H86.4489ZM87.3654 28.4975L86.6551 26.6273L85.9449 28.4975H87.3654Z" fill="#6750A4"/>
<path d="M90.7817 26.5226H89.6201V26.2144H92.3168V26.5226H91.1598V29.9273H90.7817V26.5226Z" fill="#6750A4"/>
<path d="M94.333 26.2163H94.711V29.9292H94.333V26.2163Z" fill="#6750A4"/>
<path d="M96.8213 28.0706C96.8213 26.9769 97.4674 26.1411 98.5122 26.1411C99.5569 26.1411 100.203 26.9769 100.203 28.0706C100.203 29.1644 99.5569 30.0001 98.5122 30.0001C97.4674 30.0001 96.8213 29.1644 96.8213 28.0706ZM99.825 28.0706C99.825 27.1527 99.321 26.4494 98.5122 26.4494C97.7034 26.4494 97.1993 27.1527 97.1993 28.0706C97.1993 28.9886 97.7034 29.6919 98.5122 29.6919C99.321 29.6919 99.825 28.9886 99.825 28.0706Z" fill="#6750A4"/>
<path d="M102.311 26.2163H102.81L104.629 29.4588V26.2163H105.007V29.9292H104.508L102.689 26.6844V29.9292H102.311V26.2163Z" fill="#6750A4"/>
</svg>
