<svg width="88" height="88" viewBox="0 0 88 88" fill="none" xmlns="http://www.w3.org/2000/svg">
<path d="M65.69 9.16003H22.36C20.1508 9.16003 18.36 10.9509 18.36 13.16V38.18C18.36 40.3892 20.1508 42.18 22.36 42.18H65.69C67.8991 42.18 69.69 40.3892 69.69 38.18V13.16C69.69 10.9509 67.8991 9.16003 65.69 9.16003Z" stroke="current" stroke-width="2" stroke-linecap="round" stroke-linejoin="round"/>
<path d="M60.53 20.19C62.0543 20.19 63.29 18.9543 63.29 17.43C63.29 15.9057 62.0543 14.67 60.53 14.67C59.0057 14.67 57.77 15.9057 57.77 17.43C57.77 18.9543 59.0057 20.19 60.53 20.19Z" stroke="current" stroke-width="2" stroke-linecap="round" stroke-linejoin="round"/>
<path d="M23.86 31.1701L31.19 18.3301L45.86 33.0001L51.36 25.6701L64.19 36.6701" stroke="current" stroke-width="2" stroke-linecap="round" stroke-linejoin="round"/>
<path d="M44 62.3301C47.0376 62.3301 49.5 59.8676 49.5 56.8301C49.5 53.7925 47.0376 51.3301 44 51.3301C40.9624 51.3301 38.5 53.7925 38.5 56.8301C38.5 59.8676 40.9624 62.3301 44 62.3301Z" stroke="current" stroke-width="2" stroke-linecap="round" stroke-linejoin="round"/>
<path d="M40.89 66H47.17C50.48 66 53.17 68.69 53.17 72V78.83H34.89V72C34.89 68.69 37.58 66 40.89 66Z" stroke="current" stroke-width="2" stroke-linecap="round" stroke-linejoin="round"/>
<path d="M65.97 62.3301C69.0075 62.3301 71.47 59.8676 71.47 56.8301C71.47 53.7925 69.0075 51.3301 65.97 51.3301C62.9324 51.3301 60.47 53.7925 60.47 56.8301C60.47 59.8676 62.9324 62.3301 65.97 62.3301Z" stroke="current" stroke-width="2" stroke-linecap="round" stroke-linejoin="round"/>
<path d="M62.86 66H69.14C72.45 66 75.14 68.69 75.14 72V78.83H56.86V72C56.86 68.69 59.55 66 62.86 66Z" stroke="current" stroke-width="2" stroke-linecap="round" stroke-linejoin="round"/>
<path d="M21.97 62.3301C25.0075 62.3301 27.47 59.8676 27.47 56.8301C27.47 53.7925 25.0075 51.3301 21.97 51.3301C18.9324 51.3301 16.47 53.7925 16.47 56.8301C16.47 59.8676 18.9324 62.3301 21.97 62.3301Z" stroke="current" stroke-width="2" stroke-linecap="round" stroke-linejoin="round"/>
<path d="M18.86 66H25.14C28.45 66 31.14 68.69 31.14 72V78.83H12.86V72C12.86 68.69 15.55 66 18.86 66Z" stroke="current" stroke-width="2" stroke-linecap="round" stroke-linejoin="round"/>
</svg>
