<svg width="36" height="36" viewBox="0 0 36 36" fill="none" xmlns="http://www.w3.org/2000/svg">
<path d="M30 9C30.425 9 30.781 9.144 31.068 9.432C31.356 9.719 31.5 10.075 31.5 10.5C31.5 10.925 31.356 11.281 31.068 11.568C30.781 11.856 30.425 12 30 12L6 12C5.575 12 5.219 11.856 4.932 11.568C4.644 11.281 4.5 10.925 4.5 10.5C4.5 10.075 4.644 9.719 4.932 9.432C5.219 9.144 5.575 9 6 9L30 9ZM30 16.5C30.425 16.5 30.781 16.644 31.068 16.932C31.356 17.219 31.5 17.575 31.5 18C31.5 18.425 31.356 18.7815 31.068 19.0695C30.781 19.3565 30.425 19.5 30 19.5L6 19.5C5.575 19.5 5.219 19.3565 4.932 19.0695C4.644 18.7815 4.5 18.425 4.5 18C4.5 17.575 4.644 17.219 4.932 16.932C5.219 16.644 5.575 16.5 6 16.5L30 16.5ZM30 24C30.425 24 30.781 24.1435 31.068 24.4305C31.356 24.7185 31.5 25.075 31.5 25.5C31.5 25.925 31.356 26.2815 31.068 26.5695C30.781 26.8565 30.425 27 30 27L6 27C5.575 27 5.219 26.8565 4.932 26.5695C4.644 26.2815 4.5 25.925 4.5 25.5C4.5 25.075 4.644 24.7185 4.932 24.4305C5.219 24.1435 5.575 24 6 24L30 24Z" fill="#9C9C9C"/>
</svg>
