<svg width="88" height="88" viewBox="0 0 88 88" fill="none" xmlns="http://www.w3.org/2000/svg">
<path d="M16.39 38.7201L17.92 41.8201L21.3499 42.3101L18.8699 44.7301L19.4599 48.1401L16.39 46.5301L13.33 48.1401L13.92 44.7301L11.4399 42.3101L14.86 41.8201L16.39 38.7201Z" stroke="current" stroke-width="2" stroke-linecap="round" stroke-linejoin="round"/>
<path d="M30.2 38.7201L31.7299 41.8201L35.1599 42.3101L32.6799 44.7301L33.2699 48.1401L30.2 46.5301L27.14 48.1401L27.7299 44.7301L25.25 42.3101L28.67 41.8201L30.2 38.7201Z" stroke="current" stroke-width="2" stroke-linecap="round" stroke-linejoin="round"/>
<path d="M44.0099 38.2101L45.7099 41.6401L49.5 42.1901L46.7599 44.8701L47.4099 48.6501L44.0099 46.8601L40.6199 48.6501L41.2699 44.8701L38.5199 42.1901L42.3199 41.6401L44.0099 38.2101Z" stroke="current" stroke-width="2" stroke-linecap="round" stroke-linejoin="round"/>
<path d="M57.8199 38.7201L59.3499 41.8201L62.78 42.3101L60.2999 44.7301L60.89 48.1401L57.8199 46.5301L54.7599 48.1401L55.3499 44.7301L52.8699 42.3101L56.2899 41.8201L57.8199 38.7201Z" stroke="current" stroke-width="2" stroke-linecap="round" stroke-linejoin="round"/>
<path d="M71.6299 38.7201L73.1599 41.8201L76.59 42.3101L74.11 44.7301L74.7 48.1401L71.6299 46.5301L68.5699 48.1401L69.1599 44.7301L66.6799 42.3101L70.0999 41.8201L71.6299 38.7201Z" stroke="current" stroke-width="2" stroke-linecap="round" stroke-linejoin="round"/>
<path d="M44 9.17004V17.23" stroke="current" stroke-width="2" stroke-linecap="round" stroke-linejoin="round"/>
<path d="M13.0399 30.8501L20.6299 33.6101" stroke="current" stroke-width="2" stroke-linecap="round" stroke-linejoin="round"/>
<path d="M25.33 23.4401L30.6599 28.7701" stroke="current" stroke-width="2" stroke-linecap="round" stroke-linejoin="round"/>
<path d="M19.7899 17.9L22.4899 20.6" stroke="current" stroke-width="2" stroke-linecap="round" stroke-linejoin="round"/>
<path d="M32.7399 11.15L36.1899 20.65" stroke="current" stroke-width="2" stroke-linecap="round" stroke-linejoin="round"/>
<path d="M74.9599 30.8501L67.3799 33.6101" stroke="current" stroke-width="2" stroke-linecap="round" stroke-linejoin="round"/>
<path d="M62.6799 23.4401L57.3499 28.7701" stroke="current" stroke-width="2" stroke-linecap="round" stroke-linejoin="round"/>
<path d="M68.22 17.9L65.5199 20.6" stroke="current" stroke-width="2" stroke-linecap="round" stroke-linejoin="round"/>
<path d="M55.2699 11.15L51.8199 20.65" stroke="current" stroke-width="2" stroke-linecap="round" stroke-linejoin="round"/>
<path d="M44 20.87V23.79" stroke="current" stroke-width="2" stroke-linecap="round" stroke-linejoin="round"/>
<path d="M44 78.83V70.77" stroke="current" stroke-width="2" stroke-linecap="round" stroke-linejoin="round"/>
<path d="M13.0399 57.15L20.6299 54.39" stroke="current" stroke-width="2" stroke-linecap="round" stroke-linejoin="round"/>
<path d="M25.33 64.56L30.6599 59.23" stroke="current" stroke-width="2" stroke-linecap="round" stroke-linejoin="round"/>
<path d="M19.7899 70.1L22.4899 67.4" stroke="current" stroke-width="2" stroke-linecap="round" stroke-linejoin="round"/>
<path d="M32.7399 76.8501L36.1899 67.3501" stroke="current" stroke-width="2" stroke-linecap="round" stroke-linejoin="round"/>
<path d="M74.9599 57.15L67.3799 54.39" stroke="current" stroke-width="2" stroke-linecap="round" stroke-linejoin="round"/>
<path d="M62.6799 64.56L57.3499 59.23" stroke="current" stroke-width="2" stroke-linecap="round" stroke-linejoin="round"/>
<path d="M68.22 70.1L65.5199 67.4" stroke="current" stroke-width="2" stroke-linecap="round" stroke-linejoin="round"/>
<path d="M55.2699 76.8501L51.8199 67.3501" stroke="current" stroke-width="2" stroke-linecap="round" stroke-linejoin="round"/>
<path d="M44 67.1301V64.2101" stroke="current" stroke-width="2" stroke-linecap="round" stroke-linejoin="round"/>
</svg>
