<svg width="19" height="22" viewBox="0 0 19 22" fill="none" xmlns="http://www.w3.org/2000/svg">
<path d="M14.5001 14.0002C13.9999 13.9994 13.5046 14.0995 13.0439 14.2944C12.5833 14.4893 12.1666 14.7751 11.8188 15.1346L7.49696 12.3596C7.83433 11.4848 7.83433 10.5157 7.49696 9.64087L11.8188 6.86587C12.4268 7.48767 13.232 7.87882 14.0966 7.97238C14.9612 8.06594 15.8315 7.85609 16.5584 7.37875C17.2854 6.9014 17.8238 6.18625 18.0816 5.35568C18.3393 4.52511 18.3004 3.63077 17.9715 2.82573C17.6425 2.02069 17.044 1.355 16.2784 0.942603C15.5127 0.530206 14.6275 0.396739 13.7743 0.565046C12.9211 0.733353 12.1529 1.19297 11.6012 1.86523C11.0496 2.53749 10.7487 3.38059 10.7501 4.25024C10.7516 4.71494 10.8374 5.17552 11.0032 5.60962L6.68133 8.38462C6.16101 7.85005 5.49306 7.48282 4.76292 7.32989C4.03277 7.17696 3.2736 7.24527 2.58249 7.52609C1.89137 7.80691 1.29972 8.28748 0.883176 8.90635C0.466636 9.52521 0.244141 10.2543 0.244141 11.0002C0.244141 11.7462 0.466636 12.4753 0.883176 13.0941C1.29972 13.713 1.89137 14.1936 2.58249 14.4744C3.2736 14.7552 4.03277 14.8235 4.76292 14.6706C5.49306 14.5177 6.16101 14.1504 6.68133 13.6159L11.0032 16.3909C10.8374 16.825 10.7516 17.2855 10.7501 17.7502C10.7501 18.4919 10.97 19.2169 11.3821 19.8336C11.7941 20.4503 12.3798 20.931 13.065 21.2148C13.7502 21.4986 14.5042 21.5729 15.2317 21.4282C15.9591 21.2835 16.6273 20.9263 17.1517 20.4019C17.6762 19.8774 18.0333 19.2093 18.178 18.4818C18.3227 17.7544 18.2485 17.0004 17.9646 16.3152C17.6808 15.63 17.2002 15.0443 16.5835 14.6322C15.9668 14.2202 15.2418 14.0002 14.5001 14.0002ZM14.5001 2.00024C14.9451 2.00024 15.3801 2.1322 15.7501 2.37944C16.1201 2.62667 16.4085 2.97807 16.5788 3.38921C16.7491 3.80034 16.7937 4.25274 16.7069 4.6892C16.62 5.12565 16.4057 5.52657 16.0911 5.84123C15.7764 6.1559 15.3755 6.37019 14.939 6.45701C14.5026 6.54383 14.0502 6.49927 13.639 6.32897C13.2279 6.15868 12.8765 5.87029 12.6293 5.50028C12.382 5.13027 12.2501 4.69525 12.2501 4.25024C12.2526 3.65427 12.4904 3.0834 12.9118 2.66198C13.3332 2.24056 13.9041 2.00271 14.5001 2.00024ZM4.00008 13.2502C3.55508 13.2502 3.12006 13.1183 2.75005 12.871C2.38004 12.6238 2.09165 12.2724 1.92135 11.8613C1.75106 11.4501 1.7065 10.9977 1.79332 10.5613C1.88013 10.1248 2.09443 9.72392 2.40909 9.40925C2.72376 9.09458 3.12467 8.88029 3.56113 8.79348C3.99759 8.70666 4.44999 8.75122 4.86112 8.92151C5.27225 9.09181 5.62366 9.3802 5.87089 9.75021C6.11812 10.1202 6.25008 10.5552 6.25008 11.0002C6.24762 11.5962 6.00977 12.1671 5.58835 12.5885C5.16692 13.0099 4.59606 13.2478 4.00008 13.2502ZM14.5001 20.0002C14.0551 20.0002 13.6201 19.8683 13.2501 19.621C12.88 19.3738 12.5917 19.0224 12.4214 18.6113C12.2511 18.2001 12.2065 17.7477 12.2933 17.3113C12.3801 16.8748 12.5944 16.4739 12.9091 16.1593C13.2238 15.8446 13.6247 15.6303 14.0611 15.5435C14.4976 15.4567 14.95 15.5012 15.3611 15.6715C15.7723 15.8418 16.1237 16.1302 16.3709 16.5002C16.6181 16.8702 16.7501 17.3052 16.7501 17.7502C16.7476 18.3462 16.5098 18.9171 16.0883 19.3385C15.6669 19.7599 15.0961 19.9978 14.5001 20.0002Z" fill="#9C9C9C"/>
</svg>
