<svg width="36" height="36" viewBox="0 0 36 36" fill="none" xmlns="http://www.w3.org/2000/svg">
<path d="M18.2043 3.37489C9.97913 3.2638 3.26429 9.97864 3.37538 18.2038C3.48507 26.0922 9.90812 32.5152 17.7965 32.6249C26.023 32.7374 32.7365 26.0226 32.624 17.7974C32.5157 9.90763 26.0926 3.48458 18.2043 3.37489ZM27.0932 26.3847C27.0652 26.4149 27.0309 26.4387 26.9926 26.4542C26.9544 26.4698 26.9133 26.4767 26.8721 26.4746C26.8309 26.4724 26.7906 26.4612 26.7542 26.4418C26.7179 26.4224 26.6862 26.3952 26.6615 26.3622C26.0326 25.5393 25.2624 24.8348 24.3869 24.2816C22.5967 23.1327 20.3284 22.4999 18.0004 22.4999C15.6723 22.4999 13.4041 23.1327 11.6139 24.2816C10.7384 24.8346 9.96823 25.5388 9.33929 26.3615C9.31458 26.3945 9.28291 26.4217 9.24651 26.4411C9.21012 26.4605 9.1699 26.4717 9.1287 26.4739C9.0875 26.476 9.04634 26.4691 9.00812 26.4535C8.96991 26.438 8.93558 26.4142 8.90757 26.384C6.84437 24.1567 5.67565 21.2464 5.62538 18.2108C5.51077 11.3687 11.1252 5.64177 17.9701 5.62489C24.8151 5.60802 30.3754 11.1662 30.3754 17.9999C30.3777 21.1087 29.2054 24.1036 27.0932 26.3847V26.3847Z" fill="#E0E0E0"/>
<path d="M18.0002 10.125C16.6136 10.125 15.36 10.6446 14.4691 11.5889C13.5782 12.5332 13.1332 13.8389 13.2337 15.2402C13.4376 18 15.5758 20.25 18.0002 20.25C20.4246 20.25 22.5585 18 22.7667 15.2409C22.8707 13.853 22.4292 12.5592 21.5235 11.5973C20.6292 10.6481 19.3776 10.125 18.0002 10.125Z" fill="#E0E0E0"/>
</svg>
