<svg width="36" height="36" viewBox="0 0 36 36" fill="none" xmlns="http://www.w3.org/2000/svg">
<path d="M18 3.375C9.93586 3.375 3.375 9.93586 3.375 18C3.375 26.0641 9.93586 32.625 18 32.625C26.0641 32.625 32.625 26.0641 32.625 18C32.625 9.93586 26.0641 3.375 18 3.375ZM14.4689 11.5889C15.3598 10.6446 16.6134 10.125 18 10.125C19.3866 10.125 20.629 10.6481 21.5234 11.5973C22.4297 12.5592 22.8705 13.8516 22.7665 15.2409C22.5584 18 20.4209 20.25 18 20.25C15.5791 20.25 13.4374 18 13.2335 15.2402C13.1302 13.8396 13.5703 12.543 14.4689 11.5889ZM18 30.375C16.348 30.3761 14.7126 30.0454 13.1907 29.4026C11.6689 28.7598 10.2916 27.818 9.14062 26.633C9.79985 25.6929 10.6398 24.8936 11.6114 24.2817C13.4037 23.1328 15.672 22.5 18 22.5C20.328 22.5 22.5963 23.1328 24.3865 24.2817C25.3589 24.8933 26.1996 25.6926 26.8594 26.633C25.7085 27.8181 24.3312 28.7601 22.8094 29.4029C21.2875 30.0457 19.652 30.3763 18 30.375Z" fill="#9C9C9C"/>
</svg>
