<svg width="26" height="26" viewBox="0 0 26 26" fill="none" xmlns="http://www.w3.org/2000/svg">
<path d="M25.3953 0.152867C25.0684 -0.0815679 24.6591 -0.0450327 24.4605 0.253339L12.8489 16.5054L1.21279 0.396435C1.10281 0.198536 0.916466 0.0950191 0.678184 0.0950191C0.488781 0.0950191 0.332982 0.162 0.223006 0.292918C0.116084 0.417747 0.0610962 0.563888 0.0610962 0.728297C0.0610962 0.892705 0.103865 1.02667 0.186347 1.13627L17.8192 25.6118C17.9322 25.7823 18.1094 25.8706 18.3324 25.8706C18.4974 25.8706 18.6532 25.8097 18.7876 25.688C18.9281 25.5631 18.9984 25.4018 18.9984 25.2069C18.9984 25.1217 18.9678 24.9877 18.6043 24.4518C18.3568 24.0895 18.0544 23.6481 17.6878 23.1244C17.3212 22.5977 16.9088 22.0375 16.4659 21.456C16.0168 20.8714 15.5922 20.3021 15.2011 19.7662C14.804 19.2243 14.4588 18.7493 14.1594 18.3444C13.915 18.0125 13.7409 17.7689 13.6431 17.6106L24.3658 2.63726V25.2343C24.3658 25.3987 24.4208 25.5479 24.5338 25.6697C24.6469 25.7976 24.7966 25.8645 24.9676 25.8645C25.1387 25.8645 25.2884 25.8006 25.4136 25.6758C25.5389 25.5509 25.6031 25.4018 25.6031 25.2313V0.828769C25.6244 0.77701 25.6336 0.70394 25.6336 0.597379C25.6336 0.420792 25.5511 0.268562 25.3953 0.152867Z" fill="#6750A4"/>
<path d="M13.0536 22.0952C12.4456 21.2336 11.7491 20.2532 10.9701 19.1541C10.1881 18.0581 9.38157 16.9285 8.54759 15.7655C7.7136 14.6055 6.88573 13.4577 6.06091 12.3281C5.23914 11.1986 4.49069 10.1665 3.81556 9.22872C3.15265 8.30621 2.56916 7.50548 2.08344 6.8448C1.5916 6.18107 1.28305 5.75787 1.14864 5.56606C1.03866 5.36817 0.864535 5.26465 0.644582 5.26465C0.42463 5.26465 0.256611 5.35599 0.146635 5.52648C0.0488783 5.67871 0 5.84617 0 6.0258V25.0728C0 25.2433 0.0672076 25.3956 0.204678 25.5204C0.464344 25.764 0.824821 25.7609 1.0906 25.5417C1.22807 25.4291 1.30138 25.2677 1.30138 25.0728V7.97435L13.912 25.6056C14.025 25.7761 14.2022 25.8644 14.4252 25.8644C14.5902 25.8644 14.746 25.8035 14.8804 25.6818C15.0209 25.5569 15.0912 25.4047 15.0912 25.2342C15.0912 25.1672 15.0912 25.0942 14.5199 24.2234C14.1503 23.6601 13.6584 22.9447 13.0566 22.0952H13.0536Z" fill="#6750A4"/>
</svg>
